<svg xmlns="http://www.w3.org/2000/svg" viewBox="0 0 1200 320" width="1200" height="320" font-family="-apple-system, BlinkMacSystemFont, 'Segoe UI', Roboto, Helvetica, Arial, sans-serif">
  <defs>
    <linearGradient id="grad" x1="0" y1="0" x2="1" y2="1">
      <stop offset="0" stop-color="#2997ff"/>
      <stop offset="1" stop-color="#8d7dff"/>
    </linearGradient>
    <radialGradient id="glow" cx="0.18" cy="0.5" r="0.5">
      <stop offset="0" stop-color="#2997ff" stop-opacity="0.18"/>
      <stop offset="1" stop-color="#2997ff" stop-opacity="0"/>
    </radialGradient>
  </defs>

  <rect x="0" y="0" width="1200" height="320" rx="26" fill="#06090e"/>
  <rect x="0" y="0" width="1200" height="320" rx="26" fill="url(#glow)"/>
  <rect x="0.5" y="0.5" width="1199" height="319" rx="26" fill="none" stroke="#2997ff" stroke-opacity="0.16"/>

  <g transform="translate(190,160)" fill="none" stroke="#2997ff">
    <circle r="96" stroke-opacity="0.22"/>
    <circle r="66" stroke-opacity="0.14" stroke-dasharray="3 7"/>
    <circle r="38" stroke-opacity="0.10"/>
    <path d="M -120 0 L -104 0 M 104 0 L 120 0 M 0 -120 L 0 -104 M 0 104 L 0 120" stroke-opacity="0.35"/>
    <circle r="6" fill="#2997ff" stroke="none"/>
    <circle cx="-34" cy="-22" r="5" fill="#ff9f0a" stroke="none"/>
    <circle cx="34" cy="-22" r="5" fill="#ff9f0a" stroke="none"/>
    <path d="M -34 -22 Q 0 6 34 -22" stroke="#ff9f0a" stroke-opacity="0.5"/>
  </g>

  <text x="392" y="150" font-size="62" font-weight="800" letter-spacing="2">
    <tspan fill="#f5f5f7">DENKHUB </tspan><tspan fill="url(#grad)">JARVIS</tspan>
  </text>

  <rect x="394" y="172" width="64" height="3" rx="1.5" fill="url(#grad)"/>

  <text x="394" y="212" font-size="24" fill="#c7c9cf">Un Jarvis che controlli a mani nude.</text>
  <text x="394" y="246" font-size="16" fill="#86868b" letter-spacing="0.5">Webcam dentro, gesti fuori, niente da installare.</text>

  <g font-size="13" font-weight="700" letter-spacing="1" fill="#2997ff">
    <g transform="translate(394,278)">
      <rect x="0" y="0" width="108" height="26" rx="13" fill="#2997ff" fill-opacity="0.08" stroke="#2997ff" stroke-opacity="0.2"/>
      <text x="54" y="17" text-anchor="middle">DWELL CLICK</text>
    </g>
    <g transform="translate(514,278)">
      <rect x="0" y="0" width="84" height="26" rx="13" fill="#2997ff" fill-opacity="0.08" stroke="#2997ff" stroke-opacity="0.2"/>
      <text x="42" y="17" text-anchor="middle">PINCH</text>
    </g>
    <g transform="translate(610,278)">
      <rect x="0" y="0" width="128" height="26" rx="13" fill="#2997ff" fill-opacity="0.08" stroke="#2997ff" stroke-opacity="0.2"/>
      <text x="64" y="17" text-anchor="middle">DOPPIO CLAP</text>
    </g>
    <g transform="translate(750,278)">
      <rect x="0" y="0" width="104" height="26" rx="13" fill="#2997ff" fill-opacity="0.08" stroke="#2997ff" stroke-opacity="0.2"/>
      <text x="52" y="17" text-anchor="middle">NO BUILD</text>
    </g>
  </g>
</svg>
